<?xml version="1.0" encoding="UTF-8" standalone="no"?>
<!-- Created with Inkscape (http://www.inkscape.org/) -->

<svg
   width="105mm"
   height="105mm"
   viewBox="0 0 105 105"
   version="1.1"
   id="svg1"
   sodipodi:docname="stormy.svg"
   inkscape:version="1.4 (86a8ad7, 2024-10-11)"
   xmlns:inkscape="http://www.inkscape.org/namespaces/inkscape"
   xmlns:sodipodi="http://sodipodi.sourceforge.net/DTD/sodipodi-0.dtd"
   xmlns="http://www.w3.org/2000/svg"
   xmlns:svg="http://www.w3.org/2000/svg">
  <sodipodi:namedview
     id="namedview1"
     pagecolor="#ffffff"
     bordercolor="#666666"
     borderopacity="1.0"
     inkscape:showpageshadow="2"
     inkscape:pageopacity="0.0"
     inkscape:pagecheckerboard="0"
     inkscape:deskcolor="#d1d1d1"
     inkscape:document-units="mm"
     inkscape:zoom="11.616722"
     inkscape:cx="69.253613"
     inkscape:cy="125.29352"
     inkscape:window-width="1920"
     inkscape:window-height="1017"
     inkscape:window-x="1912"
     inkscape:window-y="-8"
     inkscape:window-maximized="1"
     inkscape:current-layer="layer1" />
  <defs
     id="defs1">
    <inkscape:path-effect
       effect="skeletal"
       id="path-effect5"
       is_visible="true"
       lpeversion="1"
       pattern="M 0,4.9921382 C 0,2.2364779 2.2364779,0 4.9921382,0 c 2.7556604,0 4.9921383,2.2364779 4.9921383,4.9921382 0,2.7556604 -2.2364779,4.9921383 -4.9921383,4.9921383 C 2.2364779,9.9842765 0,7.7477986 0,4.9921382 Z"
       copytype="single_stretched"
       prop_scale="0.1"
       scale_y_rel="false"
       spacing="0"
       normal_offset="0"
       tang_offset="0"
       prop_units="false"
       vertical_pattern="false"
       hide_knot="false"
       fuse_tolerance="0" />
    <inkscape:path-effect
       effect="skeletal"
       id="path-effect3"
       is_visible="true"
       lpeversion="1"
       pattern="M 0,4.9921382 C 0,2.2364779 2.2364779,0 4.9921382,0 c 2.7556604,0 4.9921383,2.2364779 4.9921383,4.9921382 0,2.7556604 -2.2364779,4.9921383 -4.9921383,4.9921383 C 2.2364779,9.9842765 0,7.7477986 0,4.9921382 Z"
       copytype="single_stretched"
       prop_scale="1"
       scale_y_rel="false"
       spacing="0"
       normal_offset="0"
       tang_offset="0"
       prop_units="false"
       vertical_pattern="false"
       hide_knot="false"
       fuse_tolerance="0" />
    <inkscape:path-effect
       effect="skeletal"
       id="path-effect2"
       is_visible="true"
       lpeversion="1"
       pattern="M 0,4.9921382 C 0,2.2364779 2.2364779,0 4.9921382,0 c 2.7556604,0 4.9921383,2.2364779 4.9921383,4.9921382 0,2.7556604 -2.2364779,4.9921383 -4.9921383,4.9921383 C 2.2364779,9.9842765 0,7.7477986 0,4.9921382 Z"
       copytype="single_stretched"
       prop_scale="1"
       scale_y_rel="false"
       spacing="0"
       normal_offset="0"
       tang_offset="0"
       prop_units="false"
       vertical_pattern="false"
       hide_knot="false"
       fuse_tolerance="0" />
    <inkscape:path-effect
       effect="skeletal"
       id="path-effect2-0"
       is_visible="true"
       lpeversion="1"
       pattern="M 0,4.9921382 C 0,2.2364779 2.2364779,0 4.9921382,0 c 2.7556604,0 4.9921383,2.2364779 4.9921383,4.9921382 0,2.7556604 -2.2364779,4.9921383 -4.9921383,4.9921383 C 2.2364779,9.9842765 0,7.7477986 0,4.9921382 Z"
       copytype="single_stretched"
       prop_scale="1"
       scale_y_rel="false"
       spacing="0"
       normal_offset="0"
       tang_offset="0"
       prop_units="false"
       vertical_pattern="false"
       hide_knot="false"
       fuse_tolerance="0" />
    <inkscape:path-effect
       effect="skeletal"
       id="path-effect2-2"
       is_visible="true"
       lpeversion="1"
       pattern="M 0,4.9921382 C 0,2.2364779 2.2364779,0 4.9921382,0 c 2.7556604,0 4.9921383,2.2364779 4.9921383,4.9921382 0,2.7556604 -2.2364779,4.9921383 -4.9921383,4.9921383 C 2.2364779,9.9842765 0,7.7477986 0,4.9921382 Z"
       copytype="single_stretched"
       prop_scale="1"
       scale_y_rel="false"
       spacing="0"
       normal_offset="0"
       tang_offset="0"
       prop_units="false"
       vertical_pattern="false"
       hide_knot="false"
       fuse_tolerance="0" />
    <inkscape:path-effect
       effect="skeletal"
       id="path-effect2-7"
       is_visible="true"
       lpeversion="1"
       pattern="M 0,4.9921382 C 0,2.2364779 2.2364779,0 4.9921382,0 c 2.7556604,0 4.9921383,2.2364779 4.9921383,4.9921382 0,2.7556604 -2.2364779,4.9921383 -4.9921383,4.9921383 C 2.2364779,9.9842765 0,7.7477986 0,4.9921382 Z"
       copytype="single_stretched"
       prop_scale="1"
       scale_y_rel="false"
       spacing="0"
       normal_offset="0"
       tang_offset="0"
       prop_units="false"
       vertical_pattern="false"
       hide_knot="false"
       fuse_tolerance="0" />
    <inkscape:path-effect
       effect="skeletal"
       id="path-effect2-76"
       is_visible="true"
       lpeversion="1"
       pattern="M 0,4.9921382 C 0,2.2364779 2.2364779,0 4.9921382,0 c 2.7556604,0 4.9921383,2.2364779 4.9921383,4.9921382 0,2.7556604 -2.2364779,4.9921383 -4.9921383,4.9921383 C 2.2364779,9.9842765 0,7.7477986 0,4.9921382 Z"
       copytype="single_stretched"
       prop_scale="1"
       scale_y_rel="false"
       spacing="0"
       normal_offset="0"
       tang_offset="0"
       prop_units="false"
       vertical_pattern="false"
       hide_knot="false"
       fuse_tolerance="0" />
    <inkscape:path-effect
       effect="skeletal"
       id="path-effect2-21"
       is_visible="true"
       lpeversion="1"
       pattern="M 0,4.9921382 C 0,2.2364779 2.2364779,0 4.9921382,0 c 2.7556604,0 4.9921383,2.2364779 4.9921383,4.9921382 0,2.7556604 -2.2364779,4.9921383 -4.9921383,4.9921383 C 2.2364779,9.9842765 0,7.7477986 0,4.9921382 Z"
       copytype="single_stretched"
       prop_scale="1"
       scale_y_rel="false"
       spacing="0"
       normal_offset="0"
       tang_offset="0"
       prop_units="false"
       vertical_pattern="false"
       hide_knot="false"
       fuse_tolerance="0" />
    <inkscape:path-effect
       effect="skeletal"
       id="path-effect2-7-6"
       is_visible="true"
       lpeversion="1"
       pattern="M 0,4.9921382 C 0,2.2364779 2.2364779,0 4.9921382,0 c 2.7556604,0 4.9921383,2.2364779 4.9921383,4.9921382 0,2.7556604 -2.2364779,4.9921383 -4.9921383,4.9921383 C 2.2364779,9.9842765 0,7.7477986 0,4.9921382 Z"
       copytype="single_stretched"
       prop_scale="1"
       scale_y_rel="false"
       spacing="0"
       normal_offset="0"
       tang_offset="0"
       prop_units="false"
       vertical_pattern="false"
       hide_knot="false"
       fuse_tolerance="0" />
    <inkscape:path-effect
       effect="skeletal"
       id="path-effect2-0-7"
       is_visible="true"
       lpeversion="1"
       pattern="M 0,4.9921382 C 0,2.2364779 2.2364779,0 4.9921382,0 c 2.7556604,0 4.9921383,2.2364779 4.9921383,4.9921382 0,2.7556604 -2.2364779,4.9921383 -4.9921383,4.9921383 C 2.2364779,9.9842765 0,7.7477986 0,4.9921382 Z"
       copytype="single_stretched"
       prop_scale="1"
       scale_y_rel="false"
       spacing="0"
       normal_offset="0"
       tang_offset="0"
       prop_units="false"
       vertical_pattern="false"
       hide_knot="false"
       fuse_tolerance="0" />
    <inkscape:path-effect
       effect="skeletal"
       id="path-effect2-2-1"
       is_visible="true"
       lpeversion="1"
       pattern="M 0,4.9921382 C 0,2.2364779 2.2364779,0 4.9921382,0 c 2.7556604,0 4.9921383,2.2364779 4.9921383,4.9921382 0,2.7556604 -2.2364779,4.9921383 -4.9921383,4.9921383 C 2.2364779,9.9842765 0,7.7477986 0,4.9921382 Z"
       copytype="single_stretched"
       prop_scale="1"
       scale_y_rel="false"
       spacing="0"
       normal_offset="0"
       tang_offset="0"
       prop_units="false"
       vertical_pattern="false"
       hide_knot="false"
       fuse_tolerance="0" />
    <inkscape:path-effect
       effect="skeletal"
       id="path-effect2-7-1"
       is_visible="true"
       lpeversion="1"
       pattern="M 0,4.9921382 C 0,2.2364779 2.2364779,0 4.9921382,0 c 2.7556604,0 4.9921383,2.2364779 4.9921383,4.9921382 0,2.7556604 -2.2364779,4.9921383 -4.9921383,4.9921383 C 2.2364779,9.9842765 0,7.7477986 0,4.9921382 Z"
       copytype="single_stretched"
       prop_scale="1"
       scale_y_rel="false"
       spacing="0"
       normal_offset="0"
       tang_offset="0"
       prop_units="false"
       vertical_pattern="false"
       hide_knot="false"
       fuse_tolerance="0" />
    <inkscape:path-effect
       effect="skeletal"
       id="path-effect2-7-6-1"
       is_visible="true"
       lpeversion="1"
       pattern="M 0,4.9921382 C 0,2.2364779 2.2364779,0 4.9921382,0 c 2.7556604,0 4.9921383,2.2364779 4.9921383,4.9921382 0,2.7556604 -2.2364779,4.9921383 -4.9921383,4.9921383 C 2.2364779,9.9842765 0,7.7477986 0,4.9921382 Z"
       copytype="single_stretched"
       prop_scale="1"
       scale_y_rel="false"
       spacing="0"
       normal_offset="0"
       tang_offset="0"
       prop_units="false"
       vertical_pattern="false"
       hide_knot="false"
       fuse_tolerance="0" />
    <inkscape:path-effect
       effect="skeletal"
       id="path-effect2-76-3"
       is_visible="true"
       lpeversion="1"
       pattern="M 0,4.9921382 C 0,2.2364779 2.2364779,0 4.9921382,0 c 2.7556604,0 4.9921383,2.2364779 4.9921383,4.9921382 0,2.7556604 -2.2364779,4.9921383 -4.9921383,4.9921383 C 2.2364779,9.9842765 0,7.7477986 0,4.9921382 Z"
       copytype="single_stretched"
       prop_scale="1"
       scale_y_rel="false"
       spacing="0"
       normal_offset="0"
       tang_offset="0"
       prop_units="false"
       vertical_pattern="false"
       hide_knot="false"
       fuse_tolerance="0" />
    <inkscape:path-effect
       effect="skeletal"
       id="path-effect3-8"
       is_visible="true"
       lpeversion="1"
       pattern="M 0,4.9921382 C 0,2.2364779 2.2364779,0 4.9921382,0 c 2.7556604,0 4.9921383,2.2364779 4.9921383,4.9921382 0,2.7556604 -2.2364779,4.9921383 -4.9921383,4.9921383 C 2.2364779,9.9842765 0,7.7477986 0,4.9921382 Z"
       copytype="single_stretched"
       prop_scale="1"
       scale_y_rel="false"
       spacing="0"
       normal_offset="0"
       tang_offset="0"
       prop_units="false"
       vertical_pattern="false"
       hide_knot="false"
       fuse_tolerance="0" />
    <inkscape:path-effect
       effect="skeletal"
       id="path-effect3-86"
       is_visible="true"
       lpeversion="1"
       pattern="M 0,4.9921382 C 0,2.2364779 2.2364779,0 4.9921382,0 c 2.7556604,0 4.9921383,2.2364779 4.9921383,4.9921382 0,2.7556604 -2.2364779,4.9921383 -4.9921383,4.9921383 C 2.2364779,9.9842765 0,7.7477986 0,4.9921382 Z"
       copytype="single_stretched"
       prop_scale="1"
       scale_y_rel="false"
       spacing="0"
       normal_offset="0"
       tang_offset="0"
       prop_units="false"
       vertical_pattern="false"
       hide_knot="false"
       fuse_tolerance="0" />
    <inkscape:path-effect
       effect="skeletal"
       id="path-effect5-3"
       is_visible="true"
       lpeversion="1"
       pattern="M 0,4.9921382 C 0,2.2364779 2.2364779,0 4.9921382,0 c 2.7556604,0 4.9921383,2.2364779 4.9921383,4.9921382 0,2.7556604 -2.2364779,4.9921383 -4.9921383,4.9921383 C 2.2364779,9.9842765 0,7.7477986 0,4.9921382 Z"
       copytype="single_stretched"
       prop_scale="0.1"
       scale_y_rel="false"
       spacing="0"
       normal_offset="0"
       tang_offset="0"
       prop_units="false"
       vertical_pattern="false"
       hide_knot="false"
       fuse_tolerance="0" />
    <inkscape:path-effect
       effect="skeletal"
       id="path-effect5-3-8"
       is_visible="true"
       lpeversion="1"
       pattern="M 0,4.9921382 C 0,2.2364779 2.2364779,0 4.9921382,0 c 2.7556604,0 4.9921383,2.2364779 4.9921383,4.9921382 0,2.7556604 -2.2364779,4.9921383 -4.9921383,4.9921383 C 2.2364779,9.9842765 0,7.7477986 0,4.9921382 Z"
       copytype="single_stretched"
       prop_scale="0.1"
       scale_y_rel="false"
       spacing="0"
       normal_offset="0"
       tang_offset="0"
       prop_units="false"
       vertical_pattern="false"
       hide_knot="false"
       fuse_tolerance="0" />
    <inkscape:path-effect
       effect="skeletal"
       id="path-effect5-3-8-8"
       is_visible="true"
       lpeversion="1"
       pattern="M 0,4.9921382 C 0,2.2364779 2.2364779,0 4.9921382,0 c 2.7556604,0 4.9921383,2.2364779 4.9921383,4.9921382 0,2.7556604 -2.2364779,4.9921383 -4.9921383,4.9921383 C 2.2364779,9.9842765 0,7.7477986 0,4.9921382 Z"
       copytype="single_stretched"
       prop_scale="0.1"
       scale_y_rel="false"
       spacing="0"
       normal_offset="0"
       tang_offset="0"
       prop_units="false"
       vertical_pattern="false"
       hide_knot="false"
       fuse_tolerance="0" />
  </defs>
  <g
     inkscape:label="Ebene 1"
     inkscape:groupmode="layer"
     id="layer1">
    <path
       style="fill:#666666;stroke:none;stroke-width:0.264583px;stroke-linecap:butt;stroke-linejoin:miter;stroke-opacity:1"
       d="M 14.430184,99.4652 V 16.749321 h -4.122909 v 82.709877 z"
       id="path1"
       sodipodi:nodetypes="ccccc" />
    <path
       style="fill:#e3e2db;stroke:none;stroke-width:0.264583px;stroke-linecap:butt;stroke-linejoin:miter;stroke-opacity:1"
       d="m 14.394479,16.76319 c 4.442718,13.344798 3.295225,23.195713 0,31.704296 12.41526,-7.253811 24.313345,-5.198485 36.25951,-4.008589 10.30351,1.495922 18.108976,-1.005025 26.055828,-3.279756 6.508372,-2.11832 11.268037,-1.90503 16.398774,-2.186503 1.293495,-4.356319 4.216573,-5.641877 -0.546627,-14.941104 C 85.969028,22.757121 79.857463,20.860994 71.425767,21.865031 57.454691,23.435827 51.572049,22.73207 42.454602,18.767485 33.94005,14.114981 24.845253,12.218638 14.394479,16.76319 Z"
       id="path2"
       sodipodi:nodetypes="ccccccccc" />
    <path
       style="fill:#550000;stroke:none;stroke-width:0.264583px;stroke-linecap:butt;stroke-linejoin:miter;stroke-opacity:1"
       d="M 16.489878,41.452456 C 15.461526,35.851776 15.301858,29.92534 16.216565,23.596013 15.722396,20.91809 15.038591,18.809077 14.303375,16.854295 l 0.0911,31.613191 c 1.005917,-2.492068 1.566646,-4.761542 2.095403,-7.01503 z"
       id="path3"
       sodipodi:nodetypes="ccccc" />
    <path
       style="fill:#aa0000;stroke:none;stroke-width:0.264583px;stroke-linecap:butt;stroke-linejoin:miter;stroke-opacity:1"
       d="m 14.464426,48.37038 c 2.519086,-1.457611 5.361191,-2.584628 7.191712,-3.144911 3.23589,-13.75454 2.089355,-23.001443 -0.656598,-30.60323 -2.400376,0.60169 -4.548678,1.175975 -6.701692,2.182596 4.829529,16.235918 2.567743,23.498913 0.166581,31.565545 z"
       id="path4"
       sodipodi:nodetypes="cccccc" />
    <path
       style="fill:#aa0000;stroke:none;stroke-width:0.264583px;stroke-linecap:butt;stroke-linejoin:miter;stroke-opacity:1"
       d="m 28.440584,43.668083 c 2.494065,-0.28308 5.42445,-0.384287 7.167959,-0.411759 4.395458,-10.146994 2.25236,-20.115863 -0.493593,-27.71765 -2.013853,-0.638404 -5.482775,-1.433054 -7.651894,-1.344425 4.829529,16.235918 3.380814,21.405415 0.979652,29.472047 z"
       id="path4-9"
       sodipodi:nodetypes="cccccc" />
    <path
       style="fill:#aa0000;stroke:none;stroke-width:0.264583px;stroke-linecap:butt;stroke-linejoin:miter;stroke-opacity:1"
       d="m 43.647794,43.747797 c 2.061319,0.195217 5.710827,0.619756 7.454336,0.820045 3.365509,-10.146994 1.623184,-15.54201 -1.073377,-23.143797 -1.949432,-0.509563 -5.901508,-1.851787 -7.587473,-2.600624 4.418028,12.326662 3.635229,16.660867 1.254191,24.918681 z"
       id="path4-9-2"
       sodipodi:nodetypes="cccccc" />
    <path
       style="fill:#aa0000;stroke:none;stroke-width:0.264583px;stroke-linecap:butt;stroke-linejoin:miter;stroke-opacity:1"
       d="m 58.337923,44.840659 c 2.135048,-0.100286 5.627982,-0.461318 7.573575,-0.847407 3.365509,-10.146994 1.452699,-13.874558 -1.243862,-21.476345 -1.763827,0.08172 -4.500299,0.218418 -6.814427,0.08893 4.418028,12.326662 2.862183,13.971313 0.481145,22.229127 z"
       id="path4-9-2-1"
       sodipodi:nodetypes="cccccc" />
    <path
       style="fill:#aa0000;stroke:none;stroke-width:0.264583px;stroke-linecap:butt;stroke-linejoin:miter;stroke-opacity:1"
       d="m 72.827929,42.278432 c 1.909576,-0.325758 5.756823,-1.814148 7.766836,-2.168027 3.365509,-10.146994 1.678171,-10.814585 -1.01839,-18.416372 -1.895163,-0.180953 -4.960804,-0.200571 -7.104319,0.05672 4.418028,12.326662 2.733342,12.264171 0.352304,20.521985 z"
       id="path4-9-2-1-5"
       sodipodi:nodetypes="cccccc" />
    <path
       style="fill:#aa0000;stroke:none;stroke-width:0.264583px;stroke-linecap:butt;stroke-linejoin:miter;stroke-opacity:1"
       d="m 86.520278,39.352066 c 2.29448,-0.238562 4.708175,-0.324269 6.558756,-0.382059 4.484597,-8.827529 0.513272,-11.365496 -0.517317,-14.908857 -1.84961,-0.408714 -4.16364,-0.861077 -6.443812,-1.309844 2.346997,11.141728 2.126228,7.958908 0.366591,16.562856 z"
       id="path4-9-2-1-5-1"
       sodipodi:nodetypes="cccccc" />
    <path
       style="fill:#93a7ac;stroke:none;stroke-width:0.264583px;stroke-linecap:butt;stroke-linejoin:miter;stroke-opacity:1"
       d="m 6.4420466,57.720737 c -0.054935,-0.122761 7.3857054,-6.120619 20.9700424,-5.172556 0,2e-6 4e-6,10e-7 4e-6,10e-7 4.272149,0.306374 8.661606,1.951093 12.989328,4.806616 5.114508,2.297787 11.303511,3.901288 17.766708,3.418422 4.952707,-0.356022 9.729456,-1.823088 14.86041,-3.524894 2.59047,-0.81617 5.400755,-0.86422 8.107932,-0.252725 0.80823,0.182562 1.600117,0.42239 2.366611,0.713623 3.415532,1.296912 6.377196,3.479965 8.725472,6.066804 2.327547,2.553793 4.096004,5.53159 4.900334,8.751769 0.748044,2.97699 0.456976,6.173158 -1.152696,8.642824 -5.90533,8.17441 -13.858693,12.503462 -21.089293,13.350522 -2.685826,0.140698 -5.071689,-0.07777 -7.180265,-0.945455 -1.684276,-0.697044 -2.982561,-1.858946 -3.771189,-3.134738 -1.39233,-2.283576 -1.501021,-5.022879 -1.527436,-6.312569 -0.03115,-1.521101 0.0382,-2.314337 0.07984,-2.314395 0.04165,-5.7e-5 0.05626,0.797975 0.164836,2.303097 0.09143,1.267349 0.294928,3.981229 1.673021,6.076947 0.762501,1.175809 2.006392,2.233075 3.592643,2.857788 2.007131,0.795619 4.283738,0.953984 6.907909,0.792479 7.017514,-0.897758 14.677631,-5.196622 20.39749,-13.190709 1.446715,-2.188039 1.668455,-5.128201 0.979165,-7.894035 -0.760558,-3.032281 -2.463957,-5.861339 -4.702321,-8.320481 -2.263082,-2.476004 -5.103867,-4.570339 -8.350947,-5.796572 -0.723893,-0.27318 -1.47104,-0.498838 -2.232413,-0.671226 -2.550224,-0.577413 -5.184183,-0.541024 -7.582478,0.221874 -5.140127,1.705218 -10.007059,3.175057 -15.099426,3.529807 -6.692554,0.448001 -13.032739,-1.238261 -18.240012,-3.636279 -4.243951,-2.836689 -8.493923,-4.499074 -12.636993,-4.847761 -2e-6,0 -3e-6,1e-6 -4e-6,1e-6 C 14.142881,52.100877 6.4969818,57.843498 6.4420466,57.720737 Z"
       id="path5"
       inkscape:path-effect="#path-effect5"
       inkscape:original-d="m 6.4420466,57.720737 c 18.0565094,-8.080226 26.5398164,-4.792277 33.7563234,0 13.657239,6.21323 23.357297,3.193038 32.983278,0 C 86.832109,53.400026 101.87955,71.342494 95.599972,80.912104 90.667606,87.772107 83.808472,93.086483 74.85658,94.18272 62.737969,94.872394 62.495429,87.308679 62.487852,81.813992"
       sodipodi:nodetypes="cccccc" />
    <path
       style="fill:#93a7ac;stroke:none;stroke-width:0.264583px;stroke-linecap:butt;stroke-linejoin:miter;stroke-opacity:1"
       d="m -15.068415,59.432413 c -0.04226,-0.09443 5.1845104,-3.017233 15.01983013,-5.081415 C 9.684247,52.308326 24.503526,51.393373 40.374369,57.295797 c 5.299374,2.393342 11.471048,3.919134 17.792749,3.463095 4.986202,-0.353135 9.811954,-1.841489 14.860654,-3.512934 0.644656,-0.202731 1.302308,-0.357813 1.968234,-0.467077 2.880518,-0.472627 5.849611,-0.0783 8.506442,0.932016 3.410714,1.296172 6.374833,3.480044 8.723511,6.067495 2.319967,2.545715 4.093425,5.522207 4.900371,8.750045 0.744865,2.961587 0.465472,6.161543 -1.149716,8.642144 -2.71142,3.76819 -5.565844,7.058954 -8.991771,9.583359 0,0 -6e-6,2e-6 -6e-6,2e-6 -3.776003,2.782272 -8.111823,4.153888 -12.168157,3.79158 -3.378732,-0.444043 -6.43099,-1.657418 -8.137928,-4.096544 -1.450785,-2.137648 -1.423287,-4.781364 -0.893208,-6.779809 0.729625,-2.777097 2.269601,-4.924749 3.631755,-6.347195 0,0 2e-6,-10e-7 2e-6,-10e-7 1.479801,-1.55731 2.797306,-2.338235 3.852163,-2.723045 1.003931,-0.366233 1.583303,-0.347647 1.58712,-0.315924 0.0076,0.06344 -2.46253,0.312066 -5.174059,3.285899 0,10e-7 -10e-7,10e-7 -2e-6,2e-6 -1.291327,1.427602 -2.74245,3.550532 -3.392527,6.227865 -0.458098,1.908053 -0.45454,4.403842 0.901319,6.295144 1.548739,2.234405 4.436654,3.285428 7.705165,3.728004 3.845977,0.322747 7.969982,-1.044623 11.589869,-3.739138 10e-7,-2e-6 3e-6,-3e-6 5e-6,-4e-6 3.308583,-2.462618 6.069561,-5.695685 8.736977,-9.427151 1.453769,-2.19626 1.667534,-5.141755 0.982143,-7.894713 -0.762006,-3.040859 -2.470362,-5.870379 -4.702284,-8.322204 -2.26685,-2.479959 -5.109062,-4.571957 -8.352908,-5.795882 -2.51207,-0.94715 -5.30667,-1.322738 -7.98787,-0.882286 -0.619942,0.101841 -1.230466,0.246875 -1.826888,0.436976 -5.056469,1.680545 -9.967712,3.178994 -15.099177,3.541767 C 51.720323,62.189616 45.412466,60.615411 40.022371,58.145677 24.402217,52.253176 9.7424326,53.021817 0.05690518,54.896412 -9.7308583,56.790793 -15.026159,59.526841 -15.068415,59.432413 Z"
       id="path5-2"
       inkscape:path-effect="#path-effect5-3"
       inkscape:original-d="m -15.068415,59.432413 c 18.0565098,-8.080226 38.240562,-8.088838 55.266785,-1.711676 13.657239,6.21323 23.357297,3.193038 32.983278,0 13.650461,-4.320711 28.697902,13.621757 22.418324,23.191367 -4.932366,6.877144 -11.7915,14.046662 -20.743392,13.270616 -16.407085,-2.188386 -7.109742,-19.044376 0,-19.899716"
       sodipodi:nodetypes="cccccc"
       transform="matrix(0.77083341,0,0,0.71854038,16.090732,22.156888)" />
    <path
       style="fill:#93a7ac;stroke:none;stroke-width:0.264583px;stroke-linecap:butt;stroke-linejoin:miter;stroke-opacity:1"
       d="m 6.4420466,57.720737 c -0.058341,-0.130373 7.4531604,-6.129713 20.9713094,-5.188831 0,10e-7 4e-6,0 4e-6,0 4.285408,0.306897 8.677892,1.95855 12.995909,4.808739 -1e-6,10e-7 4e-6,2e-6 4e-6,2e-6 5.134461,2.307413 11.316624,3.900253 17.758075,3.421517 4.889905,-0.349286 9.619055,-1.784782 14.651897,-3.447372 0.0028,-9.28e-4 0.205684,-0.06801 0.208494,-0.06894 5.721947,-1.831646 11.904265,-1.967036 16.817694,0.795669 4.206178,2.420199 6.756435,6.795543 7.357929,11.094191 -0.231331,2.493603 -1.185405,4.851407 -2.902844,6.478848 -2.685099,2.450763 -6.416163,3.180044 -9.394676,3.511179 -1.528559,-0.01831 -2.982963,-0.16709 -4.327464,-0.688982 -0.883321,-0.33657 -1.686126,-0.899183 -2.140296,-1.7207 -0.389017,-0.745072 -0.410848,-1.588073 -0.233023,-2.311866 0.220157,-0.905863 0.682498,-1.694594 1.175529,-2.344626 1.379961,-1.83265 3.110396,-2.910235 4.590008,-3.454775 0,0 2e-6,0 2e-6,0 0.966562,-0.35821 1.814195,-0.459674 2.543321,-0.37818 1.555309,0.175966 2.067285,1.052374 2.035233,1.082975 -0.03205,0.0306 -0.609976,-0.741681 -2.057505,-0.827544 -0.690515,-0.0422 -1.472597,0.0922 -2.388317,0.464687 0,0 -2e-6,10e-7 -2e-6,10e-7 -1.40352,0.574644 -3.023067,1.655249 -4.296894,3.426424 -0.448033,0.627902 -0.862182,1.362002 -1.033173,2.161368 -0.13097,0.622404 -0.108361,1.326404 0.212479,1.882831 0.345957,0.645484 1.04373,1.088605 1.832691,1.396534 1.219765,0.466366 2.571759,0.576291 4.046285,0.584617 2.908731,-0.389792 6.483392,-1.111436 8.861196,-3.398018 1.534129,-1.415126 2.370071,-3.556915 2.586942,-5.842829 -0.592061,-4.004179 -3.022846,-8.093704 -6.944091,-10.274036 -4.576814,-2.609247 -10.481726,-2.424677 -16.033206,-0.688006 0.0024,-7.91e-4 -0.211237,0.07016 -0.208857,0.06937 -5.041784,1.672769 -9.859456,3.116312 -14.890586,3.469021 -6.675323,0.449373 -13.015711,-1.224039 -18.248647,-3.633184 -1e-6,-1e-6 -3e-6,-1e-6 -4e-6,-2e-6 -4.232581,-2.828027 -8.480584,-4.495913 -12.630404,-4.845635 0,0 -4e-6,1e-6 -4e-6,1e-6 C 14.222677,52.121433 6.5003879,57.85111 6.4420466,57.720737 Z"
       id="path5-2-7"
       inkscape:path-effect="#path-effect5-3-8"
       inkscape:original-d="m 6.4420466,57.720737 c 18.0565094,-8.080226 26.5398164,-4.792277 33.7563234,0 13.657239,6.21323 23.357297,3.193038 32.983278,0 13.650461,-4.320711 22.29192,2.490295 23.57646,11.425951 -0.441171,4.704559 -2.920937,8.5192 -11.872829,9.615437 -14.486964,-0.128524 -0.845707,-14.175994 3.663869,-9.45254"
       sodipodi:nodetypes="cccccc"
       transform="matrix(0.77083341,0,0,0.71854038,11.852811,28.727189)" />
    <path
       style="fill:#c8c4b7;stroke:none;stroke-width:0.264583px;stroke-linecap:butt;stroke-linejoin:miter;stroke-opacity:1"
       d="m 16.402795,41.037182 c 0.977028,-4.633994 1.310754,-9.855398 -0.273185,-16.879628 -0.787921,5.371192 -0.990731,10.909984 0.273185,16.879628 z"
       id="path6"
       sodipodi:nodetypes="ccc" />
  </g>
</svg>
